<svg width="118" height="35" viewBox="0 0 118 35" fill="none"
  xmlns="http://www.w3.org/2000/svg">
  <rect width="118" height="35" rx="4" fill="#FEE04F"/>
  <path d="M10.312 26C9.848 26 9.48 25.872 9.208 25.616C8.952 25.36 8.824 25 8.824 24.536V10.544C8.824 10.08 8.952 9.72 9.208 9.464C9.48 9.208 9.848 9.08 10.312 9.08H18.976C19.44 9.08 19.8 9.184 20.056 9.392C20.312 9.6 20.44 9.896 20.44 10.28C20.44 10.68 20.312 10.992 20.056 11.216C19.8 11.424 19.44 11.528 18.976 11.528H11.848V16.184H18.496C18.96 16.184 19.32 16.288 19.576 16.496C19.832 16.704 19.96 17.008 19.96 17.408C19.96 17.792 19.832 18.088 19.576 18.296C19.32 18.504 18.96 18.608 18.496 18.608H11.848V23.552H18.976C19.44 23.552 19.8 23.664 20.056 23.888C20.312 24.096 20.44 24.4 20.44 24.8C20.44 25.184 20.312 25.48 20.056 25.688C19.8 25.896 19.44 26 18.976 26H10.312ZM37.9808 8.96C38.4288 8.96 38.7888 9.104 39.0608 9.392C39.3328 9.664 39.4688 10.032 39.4688 10.496V24.704C39.4688 25.152 39.3408 25.504 39.0848 25.76C38.8288 26.016 38.4928 26.144 38.0768 26.144C37.6608 26.144 37.3328 26.016 37.0928 25.76C36.8528 25.504 36.7328 25.152 36.7328 24.704V14.816L32.6528 22.544C32.4608 22.896 32.2528 23.16 32.0288 23.336C31.8048 23.496 31.5408 23.576 31.2368 23.576C30.9328 23.576 30.6688 23.496 30.4448 23.336C30.2208 23.176 30.0128 22.912 29.8208 22.544L25.7168 14.936V24.704C25.7168 25.136 25.5888 25.488 25.3328 25.76C25.0928 26.016 24.7648 26.144 24.3488 26.144C23.9328 26.144 23.6048 26.016 23.3648 25.76C23.1248 25.504 23.0048 25.152 23.0048 24.704V10.496C23.0048 10.032 23.1328 9.664 23.3888 9.392C23.6608 9.104 24.0208 8.96 24.4688 8.96C25.0928 8.96 25.5808 9.304 25.9328 9.992L31.2608 20.144L36.5648 9.992C36.9168 9.304 37.3888 8.96 37.9808 8.96ZM50.6725 26.216C49.0245 26.216 47.5925 25.864 46.3765 25.16C45.1765 24.456 44.2485 23.448 43.5925 22.136C42.9365 20.824 42.6085 19.288 42.6085 17.528C42.6085 15.768 42.9285 14.24 43.5685 12.944C44.2245 11.632 45.1605 10.624 46.3765 9.92C47.5925 9.216 49.0245 8.864 50.6725 8.864C52.3205 8.864 53.7445 9.216 54.9445 9.92C56.1605 10.624 57.0885 11.632 57.7285 12.944C58.3845 14.24 58.7125 15.768 58.7125 17.528C58.7125 19.288 58.3845 20.824 57.7285 22.136C57.0725 23.448 56.1365 24.456 54.9205 25.16C53.7205 25.864 52.3045 26.216 50.6725 26.216ZM50.6725 23.744C52.2245 23.744 53.4325 23.208 54.2965 22.136C55.1765 21.064 55.6165 19.528 55.6165 17.528C55.6165 15.528 55.1765 14 54.2965 12.944C53.4325 11.872 52.2245 11.336 50.6725 11.336C49.1045 11.336 47.8805 11.872 47.0005 12.944C46.1365 14 45.7045 15.528 45.7045 17.528C45.7045 19.528 46.1365 21.064 47.0005 22.136C47.8805 23.208 49.1045 23.744 50.6725 23.744ZM69.3756 26.216C67.7276 26.216 66.2956 25.864 65.0796 25.16C63.8796 24.456 62.9516 23.448 62.2956 22.136C61.6396 20.824 61.3116 19.288 61.3116 17.528C61.3116 15.768 61.6316 14.24 62.2716 12.944C62.9276 11.632 63.8636 10.624 65.0796 9.92C66.2956 9.216 67.7276 8.864 69.3756 8.864C71.0236 8.864 72.4476 9.216 73.6476 9.92C74.8636 10.624 75.7916 11.632 76.4316 12.944C77.0876 14.24 77.4156 15.768 77.4156 17.528C77.4156 19.288 77.0876 20.824 76.4316 22.136C75.7756 23.448 74.8396 24.456 73.6236 25.16C72.4236 25.864 71.0076 26.216 69.3756 26.216ZM69.3756 23.744C70.9276 23.744 72.1356 23.208 72.9996 22.136C73.8796 21.064 74.3196 19.528 74.3196 17.528C74.3196 15.528 73.8796 14 72.9996 12.944C72.1356 11.872 70.9276 11.336 69.3756 11.336C67.8076 11.336 66.5836 11.872 65.7036 12.944C64.8396 14 64.4076 15.528 64.4076 17.528C64.4076 19.528 64.8396 21.064 65.7036 22.136C66.5836 23.208 67.8076 23.744 69.3756 23.744ZM82.0308 26C81.5668 26 81.1988 25.872 80.9268 25.616C80.6708 25.36 80.5428 25 80.5428 24.536V10.544C80.5428 10.08 80.6708 9.72 80.9268 9.464C81.1988 9.208 81.5668 9.08 82.0308 9.08H86.7828C89.5508 9.08 91.6948 9.824 93.2148 11.312C94.7508 12.784 95.5188 14.856 95.5188 17.528C95.5188 20.216 94.7508 22.304 93.2148 23.792C91.6948 25.264 89.5508 26 86.7828 26H82.0308ZM86.5908 23.48C90.4788 23.48 92.4228 21.496 92.4228 17.528C92.4228 13.576 90.4788 11.6 86.5908 11.6H83.6388V23.48H86.5908ZM97.5276 26.144C96.2956 26.192 95.6796 25.768 95.6796 24.872C95.6796 24.488 95.7836 24.2 95.9916 24.008C96.1836 23.8 96.4956 23.68 96.9276 23.648L97.6956 23.6C98.3516 23.568 98.8476 23.36 99.1836 22.976C99.5196 22.592 99.6876 22.008 99.6876 21.224V10.496C99.6876 10.032 99.8236 9.664 100.096 9.392C100.384 9.104 100.76 8.96 101.224 8.96C101.704 8.96 102.08 9.104 102.352 9.392C102.64 9.664 102.784 10.032 102.784 10.496V21.224C102.784 24.248 101.288 25.872 98.2956 26.096L97.5276 26.144ZM107.977 26.144C107.513 26.144 107.137 26 106.849 25.712C106.577 25.424 106.441 25.048 106.441 24.584V10.496C106.441 10.032 106.577 9.664 106.849 9.392C107.137 9.104 107.513 8.96 107.977 8.96C108.457 8.96 108.833 9.104 109.105 9.392C109.393 9.664 109.537 10.032 109.537 10.496V24.584C109.537 25.048 109.393 25.424 109.105 25.712C108.833 26 108.457 26.144 107.977 26.144Z" fill="black"/>
</svg>
  